# This file uses centimeters as units for non-parametric coordinates.

mtllib Shelf.mtl
g default
v 49.248848 48.712948 40.715408
v 70.811707 46.749302 40.715427
v 49.373272 49.081390 40.715427
v 70.811707 49.117634 40.715427
v 49.373272 49.081390 -19.075554
v 70.811707 49.117634 -19.075554
v 49.248848 48.712948 -19.075550
v 70.811707 46.749302 -19.075554
v 49.373272 49.081390 -17.593277
v 49.248848 48.712948 -17.593273
v 70.811707 46.743683 -17.593277
v 70.811707 49.117634 -17.593277
v 49.373272 49.081390 39.148331
v 49.248848 48.712948 39.148312
v 70.811707 46.743683 39.148331
v 70.811707 49.117634 39.148331
v 71.636948 48.728745 39.148331
v 71.636948 49.117634 39.148331
v 71.636948 48.728745 -17.593277
v 71.636948 49.117634 -17.593277
v 49.719997 49.117634 40.715427
v 49.719997 49.117634 39.148331
v 49.719997 49.117634 -17.593277
v 49.719997 49.117634 -19.075554
v 50.295742 48.728745 -19.059916
v 50.295742 48.723125 -17.577637
v 50.295742 48.723125 39.163971
v 50.295742 48.728745 40.731068
v 48.932079 47.774933 39.148331
v 49.719997 47.738693 39.148331
v 49.719997 47.738693 40.715427
v 48.932079 47.774933 40.715427
v 48.932079 47.774933 -19.075554
v 49.719997 47.738693 -19.075554
v 49.719997 47.738693 -17.593277
v 48.932079 47.774933 -17.593277
v 64.484192 47.343132 40.715427
v 64.484192 47.361336 39.148331
v 64.484192 47.361336 -17.593277
v 64.484192 47.343132 -19.075554
vt 0.915767 0.002086
vt 0.941865 0.001992
vt 0.941865 0.041528
vt 0.915767 0.041528
vt 0.766137 0.028091
vt 0.766137 0.001992
vt 0.772273 0.001992
vt 0.772273 0.028090
vt 0.750515 0.028090
vt 0.750515 0.001992
vt 0.766137 0.973062
vt 0.772273 0.973062
vt 0.750515 0.973062
vt 0.766137 0.997747
vt 0.772273 0.997748
vt 0.750515 0.997748
vt 0.947974 0.041528
vt 0.947974 0.001992
vt 0.972659 0.002086
vt 0.972659 0.041528
vt 0.818542 0.946963
vt 0.812066 0.946963
vt 0.812066 0.001992
vt 0.818542 0.001992
vt 0.779007 0.946963
vt 0.779007 0.001992
vt 0.372524 0.001992
vt 0.378299 0.001992
vt 0.378299 0.028090
vt 0.372524 0.028090
vt 0.729559 0.001992
vt 0.729559 0.028090
vt 0.378299 0.973062
vt 0.372524 0.973062
vt 0.729559 0.973062
vt 0.378299 0.997748
vt 0.372524 0.997748
vt 0.743302 0.028090
vt 0.743302 0.973062
vt 0.729559 0.997748
vt 0.001941 0.971649
vt 0.015063 0.971649
vt 0.015063 0.997748
vt 0.001941 0.997748
vt 0.001941 0.026678
vt 0.015063 0.026678
vt 0.024652 0.971910
vt 0.024652 0.998008
vt 0.001941 0.001992
vt 0.015063 0.001992
vt 0.024652 0.026938
vt 0.260945 0.971649
vt 0.260945 0.997748
vt 0.024652 0.002253
vt 0.260945 0.026678
vt 0.366324 0.971649
vt 0.366324 0.997748
vt 0.260945 0.001992
vt 0.366324 0.026678
vt 0.366324 0.001992
vt 0.857296 0.361099
vt 0.857559 0.343664
vt 0.864035 0.353252
vt 0.841674 0.366374
vt 0.841071 0.353252
vt 0.834483 0.107370
vt 0.824593 0.001992
vt 0.864035 0.001992
vt 0.863432 0.359026
vt 0.870784 0.359026
vt 0.870180 0.353252
vt 0.876920 0.361099
vt 0.876657 0.343664
vt 0.870180 0.001992
vt 0.909622 0.001992
vt 0.899733 0.107370
vt 0.893145 0.353252
vt 0.892542 0.366374
vt 0.928251 0.084953
vt 0.928251 0.045418
vt 0.941994 0.078477
vt 0.941994 0.084953
vt 0.908528 0.409800
vt 0.908528 0.370264
vt 0.922272 0.370264
vt 0.922272 0.376741
vn -0.012397 0.014381 0.999820
vn 0.000459 0.004065 0.999992
vn 0.000139 0.004333 0.999991
vn -0.103963 0.994581 0.000000
vn -0.001691 0.999999 0.000000
vn -0.001691 0.999999 0.000000
vn -0.103964 0.994581 0.000000
vn 0.000008 -0.000011 -1.000000
vn -0.000140 -0.004333 -0.999991
vn 0.012377 -0.014417 -0.999819
vn -0.045946 -0.998944 0.000000
vn -0.045946 -0.998944 0.000000
vn -0.045945 -0.998944 0.000000
vn -0.045945 -0.998944 0.000000
vn 1.000000 0.000000 0.000000
vn 1.000000 0.000000 0.000000
vn 1.000000 0.000000 0.000000
vn 1.000000 0.000000 0.000000
vn -0.947436 0.319945 0.000000
vn -0.947433 0.319955 0.000000
vn -0.947433 0.319955 0.000000
vn -0.947436 0.319945 0.000000
vn -0.947432 0.319958 0.000000
vn -0.947436 0.319945 0.000000
vn -0.947436 0.319945 0.000000
vn -0.947432 0.319958 0.000000
vn -0.045946 -0.998944 0.000000
vn -0.045946 -0.998944 0.000000
vn -0.045946 -0.998944 0.000000
vn -0.045946 -0.998944 0.000000
vn 1.000000 0.000000 0.000000
vn 1.000000 0.000000 0.000000
vn 1.000000 0.000000 0.000000
vn 1.000000 0.000000 0.000000
vn -0.103964 0.994581 0.000000
vn -0.001691 0.999999 0.000000
vn -0.001691 0.999999 0.000000
vn -0.103964 0.994581 0.000000
vn 1.000000 0.000000 0.000000
vn 1.000000 0.000000 0.000000
vn 1.000000 0.000000 0.000000
vn 1.000000 0.000000 0.000000
vn -0.000002 0.000000 1.000000
vn -0.000002 0.000000 1.000000
vn -0.000002 0.000000 1.000000
vn -0.000002 0.000000 1.000000
vn 0.923385 -0.383876 0.000000
vn 0.923385 -0.383876 0.000000
vn 0.923385 -0.383876 0.000000
vn 0.923385 -0.383876 0.000000
vn -0.000003 0.000000 -1.000000
vn -0.000003 0.000000 -1.000000
vn -0.000003 0.000000 -1.000000
vn -0.000003 0.000000 -1.000000
vn 0.000000 1.000000 0.000000
vn 0.000000 1.000000 0.000000
vn 0.000000 1.000000 0.000000
vn 0.000000 1.000000 0.000000
vn 0.000000 1.000000 0.000000
vn 0.000000 1.000000 0.000000
vn 0.000000 1.000000 0.000000
vn 0.000000 1.000000 0.000000
vn -0.000459 -0.004064 -0.999992
vn -0.000486 -0.004041 -0.999992
vn -0.000486 -0.004041 -0.999992
vn -0.000486 -0.004041 -0.999992
vn -0.096037 -0.995378 0.000108
vn -0.096032 -0.995369 0.004225
vn -0.095295 -0.995440 0.004224
vn -0.097105 -0.995274 0.000107
vn -0.096037 -0.995378 -0.000107
vn -0.097102 -0.995274 -0.000107
vn -0.096039 -0.995370 -0.003997
vn -0.095295 -0.995441 -0.003995
vn 0.000486 0.004042 0.999992
vn 0.000486 0.004042 0.999992
vn 0.000486 0.004042 0.999992
vn 0.863828 -0.503785 0.000902
vn 0.863828 -0.503785 0.000902
vn 0.863828 -0.503785 0.000902
vn 0.863828 -0.503785 0.000902
vn -0.008582 -0.004130 0.999955
vn -0.008582 -0.004130 0.999955
vn -0.008582 -0.004130 0.999955
vn -0.008582 -0.004130 0.999955
vn -0.947435 0.319949 0.000000
vn -0.947435 0.319949 0.000000
vn -0.947435 0.319949 0.000000
vn -0.947435 0.319949 0.000000
vn 0.008569 0.004147 -0.999955
vn 0.008569 0.004147 -0.999955
vn 0.008569 0.004147 -0.999955
vn 0.008569 0.004147 -0.999955
vn 0.863841 -0.503764 -0.000954
vn 0.863841 -0.503764 -0.000954
vn 0.863841 -0.503764 -0.000954
vn 0.863841 -0.503764 -0.000954
vn -0.947435 0.319950 0.000000
vn -0.947434 0.319950 0.000000
vn -0.947435 0.319950 0.000000
vn -0.947434 0.319950 0.000000
vn 0.863209 -0.504846 0.000000
vn 0.863209 -0.504846 0.000000
vn 0.863209 -0.504846 0.000000
vn 0.863209 -0.504846 0.000000
vn -0.947434 0.319952 0.000000
vn -0.947434 0.319952 0.000000
vn -0.947434 0.319952 0.000000
vn -0.947434 0.319952 0.000000
vn -0.096371 -0.995337 -0.003997
vn -0.095562 -0.995424 -0.000108
vn -0.095561 -0.995424 0.000107
vn -0.096362 -0.995337 0.004226
vn 0.000015 -0.000054 1.000000
s 1
g pCube3
usemtl initialShadingGroup
f 1/61/1 28/62/2 21/63/3
s 2
f 3/27/4 21/28/5 22/29/6 13/30/7
s 3
f 5/70/8 24/71/9 7/72/10
s 4
f 29/41/11 30/42/12 31/43/13 32/44/14
s off
f 2/1/15 15/2/16 16/3/17 4/4/18
s 5
f 14/5/19 1/6/20 3/7/21 13/8/22
f 7/14/23 10/11/24 9/12/25 5/15/26
s 4
f 33/49/27 34/50/28 35/46/29 36/45/30
s off
f 12/17/31 11/18/32 8/19/33 6/20/34
s 2
f 9/34/35 23/33/36 24/36/37 5/37/38
s 5
f 10/11/24 14/5/19 13/8/22 9/12/25
s 4
f 36/45/30 35/46/29 30/42/12 29/41/11
s off
f 18/21/39 17/22/40 19/23/41 20/24/42
s 2
f 13/30/7 22/29/6 23/33/36 9/34/35
s off
f 16/79/43 15/80/44 17/81/45 18/82/46
f 15/25/47 11/26/48 19/23/49 17/22/50
f 11/83/51 12/84/52 20/85/53 19/86/54
f 12/35/55 16/32/56 18/38/57 20/39/58
s 2
f 21/28/5 4/31/59 16/32/60 22/29/6
f 23/33/36 22/29/6 16/32/60 12/35/61
f 24/36/37 23/33/36 12/35/61 6/40/62
s 3
f 25/73/63 24/71/9 6/74/64 8/75/65 40/76/66
s 6
f 39/55/67 40/58/68 8/60/69 11/59/70
f 38/52/71 39/55/67 11/59/70 15/56/72
f 37/53/73 38/52/71 15/56/72 2/57/74
s 1
f 21/63/3 28/62/2 37/66/75 2/67/76 4/68/77
s off
f 27/47/78 28/48/79 31/43/80 30/42/81
f 28/62/82 1/61/83 32/64/84 31/65/85
f 1/6/86 14/5/87 29/9/88 32/10/89
f 7/72/90 25/73/91 34/77/92 33/78/93
f 25/54/94 26/51/95 35/46/96 34/50/97
f 10/11/98 7/14/99 33/16/100 36/13/101
f 26/51/102 27/47/103 30/42/104 35/46/105
f 14/5/106 10/11/107 36/13/108 29/9/109
s 6
f 28/48/110 27/47/111 38/52/71 37/53/73
f 27/47/111 26/51/112 39/55/67 38/52/71
f 26/51/112 25/54/113 40/58/68 39/55/67
s 1
f 1/61/1 21/63/3 3/69/114
s 3
f 7/72/10 24/71/9 25/73/63
